<?xml version="1.0" standalone="no"?>
<!DOCTYPE svg PUBLIC "-//W3C//DTD SVG 20010904//EN"
 "http://www.w3.org/TR/2001/REC-SVG-20010904/DTD/svg10.dtd">
<svg version="1.0" xmlns="http://www.w3.org/2000/svg"
 width="600.000000pt" height="600.000000pt" viewBox="0 0 600.000000 600.000000"
 preserveAspectRatio="xMidYMid meet">
<metadata>
Created by potrace 1.14, written by Peter Selinger 2001-2017
</metadata>
<g transform="translate(0.000000,600.000000) scale(0.100000,-0.100000)"
fill="#000000" stroke="none">
<path d="M2336 5229 c-77 -10 -175 -34 -221 -54 -17 -7 -76 -48 -130 -93 -107
-86 -214 -208 -309 -354 -58 -89 -188 -346 -208 -410 -8 -27 -20 -40 -48 -53
-81 -37 -332 -330 -394 -460 -20 -43 -52 -123 -71 -178 -40 -120 -131 -445
-141 -502 -11 -67 -18 -72 -48 -41 -32 35 -52 29 -65 -21 -17 -62 -16 -77 39
-478 6 -44 18 -113 26 -152 8 -40 23 -150 34 -245 11 -95 29 -225 40 -288 30
-178 49 -348 60 -550 25 -456 19 -419 63 -418 17 1 199 -4 402 -10 204 -7 548
-17 765 -22 217 -6 526 -15 685 -20 160 -5 421 -12 580 -16 160 -3 344 -13
410 -21 219 -28 284 -30 415 -15 78 8 165 12 230 8 124 -7 150 3 150 59 0 18
11 115 25 216 13 101 26 204 27 229 l3 45 105 6 c196 12 324 61 366 141 19 37
17 98 -4 124 -42 52 -169 84 -336 84 -64 0 -116 3 -116 6 0 3 9 40 20 83 34
134 111 284 202 394 48 59 59 91 35 100 -8 3 -51 -6 -96 -19 -107 -31 -139
-31 -170 1 -13 14 -30 25 -38 25 -17 0 -17 -2 7 200 9 76 13 87 37 105 49 34
82 76 94 115 10 34 9 43 -9 72 -32 49 -39 67 -52 138 -7 36 -15 75 -18 88 -4
19 0 22 29 22 18 0 66 9 108 21 130 36 196 90 290 234 122 188 176 339 187
518 6 103 -9 260 -25 265 -6 2 -11 10 -11 18 0 12 -33 14 -189 14 -209 0 -208
0 -195 65 9 48 -11 107 -59 172 -59 79 -119 110 -254 133 -57 10 -106 20 -107
22 -1 1 -12 17 -24 34 -11 17 -39 39 -62 49 -37 17 -40 21 -34 49 8 43 -19
154 -55 224 -28 55 -111 144 -176 188 -86 58 -238 102 -385 110 -92 5 -117 3
-205 -20 -120 -31 -242 -88 -309 -144 l-50 -41 -37 34 c-170 153 -523 250
-783 214z m-75 -97 c-7 -2 -18 1 -23 6 -8 8 -4 9 13 5 13 -4 18 -8 10 -11z
m86 12 c-3 -3 -12 -4 -19 -1 -8 3 -5 6 6 6 11 1 17 -2 13 -5z m260 -20 c-3 -3
-12 -4 -19 -1 -8 3 -5 6 6 6 11 1 17 -2 13 -5z m298 -64 c3 -5 1 -10 -4 -10
-6 0 -11 5 -11 10 0 6 2 10 4 10 3 0 8 -4 11 -10z m1065 0 c8 -5 11 -10 5 -10
-5 0 -17 5 -25 10 -8 5 -10 10 -5 10 6 0 17 -5 25 -10z m-477 -7 c-7 -2 -19
-2 -25 0 -7 3 -2 5 12 5 14 0 19 -2 13 -5z m-213 -73 c-12 -8 -11 -10 5 -10
17 -1 17 -2 -4 -11 -16 -6 -28 -6 -34 0 -5 5 -17 7 -26 4 -13 -4 -14 -3 -1 5
8 6 18 8 22 5 13 -7 39 18 31 31 -3 6 0 5 8 -2 12 -11 12 -14 -1 -22z m-245
-8 c-3 -3 -11 0 -18 7 -9 10 -8 11 6 5 10 -3 15 -9 12 -12z m39 -26 c-8 -20
-20 -21 -27 -2 -4 10 -1 13 9 9 7 -3 14 1 14 8 0 7 2 10 5 7 3 -3 3 -13 -1
-22z m973 18 c-3 -3 -12 -4 -19 -1 -8 3 -5 6 6 6 11 1 17 -2 13 -5z m-2147
-44 c0 -5 -5 -10 -11 -10 -5 0 -7 5 -4 10 3 6 8 10 11 10 2 0 4 -4 4 -10z
m1350 -36 c0 -8 5 -13 11 -11 6 1 14 -5 16 -13 4 -12 3 -12 -5 -2 -5 8 -13 13
-17 12 -4 -1 -14 11 -21 26 -13 23 -12 25 1 14 8 -7 15 -19 15 -26z m-75 -59
c1 -14 -2 -22 -5 -19 -3 3 -5 16 -5 29 -1 14 2 22 5 19 3 -3 5 -16 5 -29z
m-1345 1 c0 -2 -8 -10 -17 -17 -16 -13 -17 -12 -4 4 13 16 21 21 21 13z m1313
-9 c3 -8 -1 -14 -8 -14 -7 0 -11 6 -8 14 3 7 6 13 8 13 2 0 5 -6 8 -13z
m-1353 -37 c0 -5 -5 -10 -11 -10 -5 0 -7 5 -4 10 3 6 8 10 11 10 2 0 4 -4 4
-10z m653 -7 c-7 -2 -21 -2 -30 0 -10 3 -4 5 12 5 17 0 24 -2 18 -5z m52 -3
c-27 -12 -43 -12 -25 0 8 5 22 9 30 9 10 0 8 -3 -5 -9z m380 0 c25 -11 -1 -11
-35 0 -20 6 -21 8 -5 8 11 0 29 -3 40 -8z m-1114 -37 c13 -16 12 -17 -3 -4
-10 7 -18 15 -18 17 0 8 8 3 21 -13z m1314 -33 c-27 -12 -43 -12 -25 0 8 5 22
9 30 9 10 0 8 -3 -5 -9z m92 4 c-3 -3 -12 -4 -19 -1 -8 3 -5 6 6 6 11 1 17 -2
13 -5z m650 0 c-3 -3 -12 -4 -19 -1 -8 3 -5 6 6 6 11 1 17 -2 13 -5z m369 -12
c-10 -2 -22 0 -28 6 -6 6 0 7 19 4 21 -5 23 -7 9 -10z m-1974 1 c-6 -3 -10 -8
-7 -13 3 -4 -4 -6 -15 -3 -32 9 -31 18 3 19 18 1 26 -1 19 -3z m565 1 c-3 -3
-12 -4 -19 -1 -8 3 -5 6 6 6 11 1 17 -2 13 -5z m-1021 -27 c0 -14 -8 -24 -19
-24 -15 -2 -16 0 -2 13 8 9 15 20 15 25 0 5 2 9 4 9 2 0 3 -10 2 -23z m2061
17 c-3 -3 -12 -4 -19 -1 -8 3 -5 6 6 6 11 1 17 -2 13 -5z m280 0 c-3 -3 -12
-4 -19 -1 -8 3 -5 6 6 6 11 1 17 -2 13 -5z m-1544 -11 c-7 -2 -21 -2 -30 0
-10 3 -4 5 12 5 17 0 24 -2 18 -5z m-106 -9 c-3 -3 -12 -4 -19 -1 -8 3 -5 6 6
6 11 1 17 -2 13 -5z m318 -4 c-3 -5 -14 -10 -23 -9 -14 0 -13 2 3 9 27 11 27
11 20 0z m52 -16 c-3 -3 -12 -4 -19 -1 -8 3 -5 6 6 6 11 1 17 -2 13 -5z m413
2 c0 -2 -7 -9 -15 -16 -13 -11 -14 -10 -9 4 5 14 24 23 24 12z m21 -15 c-6
-10 -7 -21 -3 -25 3 -4 -1 -4 -10 -1 -15 6 -15 8 0 26 21 24 26 24 13 0z
m-1214 -8 c0 -8 -6 -9 -19 -2 -10 5 -18 11 -18 12 0 2 8 3 18 3 10 0 19 -6 19
-13z m38 7 c-3 -5 -12 -10 -18 -10 -7 0 -6 4 3 10 19 12 23 12 15 0z m200 -10
c-3 -5 -14 -10 -23 -10 -15 0 -15 2 -2 10 20 13 33 13 25 0z m1942 -16 c-3 -3
-12 -4 -19 -1 -8 3 -5 6 6 6 11 1 17 -2 13 -5z m-2537 -10 c0 -8 -19 -13 -24
-6 -3 5 1 9 9 9 8 0 15 -2 15 -3z m375 -4 c-3 -5 -12 -10 -18 -10 -7 0 -6 4 3
10 19 12 23 12 15 0z m1040 -1 c15 -7 11 -8 -15 -3 -26 4 -31 3 -20 -5 13 -9
13 -11 -2 -11 -18 0 -23 11 -11 23 8 9 23 8 48 -4z m1100 1 c16 -7 14 -8 -12
-7 -17 1 -29 5 -26 10 5 9 12 8 38 -3z m-252 -7 c-13 -2 -33 -2 -45 0 -13 2
-3 4 22 4 25 0 35 -2 23 -4z m164 -9 c-3 -3 -12 -4 -19 -1 -8 3 -5 6 6 6 11 1
17 -2 13 -5z m-753 -19 c-4 -8 -1 -22 5 -29 7 -9 8 -17 3 -20 -11 -7 -25 40
-17 54 9 15 15 12 9 -5z m353 9 c-3 -3 -12 -4 -19 -1 -8 3 -5 6 6 6 11 1 17
-2 13 -5z m627 -6 c-5 -8 -1 -9 12 -4 14 5 16 4 8 -4 -6 -6 -19 -8 -28 -4 -14
5 -15 9 -4 15 18 12 20 11 12 -3z m-2376 -6 c9 -6 6 -11 -11 -19 -15 -7 -29
-8 -38 -2 -12 8 -12 10 1 8 8 -1 22 -1 30 0 13 1 13 2 0 11 -8 5 -10 10 -5 10
6 0 16 -4 23 -8z m1167 -12 c-3 -5 -14 -10 -23 -9 -14 0 -13 2 3 9 27 11 27
11 20 0z m1132 4 c-3 -3 -12 -4 -19 -1 -8 3 -5 6 6 6 11 1 17 -2 13 -5z
m-1430 -10 c-3 -3 -12 -4 -19 -1 -8 3 -5 6 6 6 11 1 17 -2 13 -5z m120 0 c-3
-3 -12 -4 -19 -1 -8 3 -5 6 6 6 11 1 17 -2 13 -5z m261 -7 c8 -10 6 -13 -11
-14 -16 -2 -18 0 -8 6 11 7 10 10 -5 14 -14 4 -15 5 -3 6 9 0 21 -5 27 -12z
m37 -7 c10 -11 16 -20 13 -20 -3 0 -13 9 -23 20 -10 11 -16 20 -13 20 3 0 13
-9 23 -20z m-1591 -30 c-5 -5 -10 3 -11 18 -1 22 0 24 9 8 6 -10 6 -22 2 -26z
m2316 33 c-8 -3 -24 -10 -35 -15 -20 -9 -20 -9 -1 6 11 9 27 16 35 15 14 0 14
-1 1 -6z m-470 -79 c0 -2 -13 2 -30 11 -16 9 -30 18 -30 21 0 2 14 -2 30 -11
17 -9 30 -18 30 -21z m-913 13 c0 -7 -7 -19 -14 -26 -12 -11 -14 -10 -11 5 2
15 15 32 24 34 0 0 1 -6 1 -13z m1523 -2 c0 -1 -8 -5 -18 -7 -11 -3 -19 0 -19
7 0 7 8 10 19 7 10 -2 18 -6 18 -7z m-1450 1 c0 -2 -7 -7 -16 -10 -8 -3 -12
-2 -9 4 6 10 25 14 25 6z m-1064 -28 c-1 -13 -5 -24 -9 -25 -8 -3 -9 6 -1 30
8 24 13 21 10 -5z m1261 16 c-3 -3 -12 -4 -19 -1 -8 3 -5 6 6 6 11 1 17 -2 13
-5z m-1031 -24 c0 -11 -4 -20 -8 -20 -10 0 -11 24 -1 33 9 9 9 10 9 -13z
m1304 10 c-12 -8 -12 -10 -1 -10 8 0 12 -3 8 -6 -9 -9 -28 6 -22 17 4 5 12 9
18 9 7 0 6 -4 -3 -10z m-273 -6 c-3 -3 -12 -4 -19 -1 -8 3 -5 6 6 6 11 1 17
-2 13 -5z m216 -1 c-7 -2 -19 -2 -25 0 -7 3 -2 5 12 5 14 0 19 -2 13 -5z m167
-3 c8 -5 11 -10 5 -10 -5 0 -17 5 -25 10 -8 5 -10 10 -5 10 6 0 17 -5 25 -10z
m57 4 c-3 -3 -12 -4 -19 -1 -8 3 -5 6 6 6 11 1 17 -2 13 -5z m1198 -4 c-11 -5
-27 -9 -35 -9 -9 0 -8 4 5 9 11 5 27 9 35 9 9 0 8 -4 -5 -9z m-2570 -10 c3 -5
1 -10 -4 -10 -6 0 -11 5 -11 10 0 6 2 10 4 10 3 0 8 -4 11 -10z m1428 3 c-7
-2 -19 -2 -25 0 -7 3 -2 5 12 5 14 0 19 -2 13 -5z m204 -8 c0 -8 -4 -12 -9 -9
-4 3 -8 9 -8 15 0 5 4 9 8 9 5 0 9 -7 9 -15z m393 -6 c0 -14 -17 -10 -23 5 -4
10 -1 13 9 9 7 -3 14 -9 14 -14z m37 15 c-3 -3 -12 -4 -19 -1 -8 3 -5 6 6 6
11 1 17 -2 13 -5z m-355 -21 c7 2 10 2 5 0 -4 -3 -4 -10 0 -16 4 -6 0 -8 -10
-4 -9 3 -18 3 -20 -1 -2 -4 -2 -2 -1 5 2 6 -4 14 -12 17 -9 3 -14 -1 -14 -11
0 -9 -3 -14 -6 -10 -4 3 -4 13 0 22 4 12 10 14 25 5 11 -5 26 -8 33 -7z m358
-8 c-7 -9 -15 -13 -17 -11 -7 7 7 26 19 26 6 0 6 -6 -2 -15z m-1275 -5 c3 -6
-1 -7 -9 -4 -18 7 -21 14 -7 14 6 0 13 -4 16 -10z m42 4 c-3 -3 -12 -4 -19 -1
-8 3 -5 6 6 6 11 1 17 -2 13 -5z m1130 0 c-3 -3 -12 -4 -19 -1 -8 3 -5 6 6 6
11 1 17 -2 13 -5z m718 -4 c-27 -12 -43 -12 -25 0 8 5 22 9 30 9 10 0 8 -3 -5
-9z m-2150 -10 c-3 -5 -12 -10 -18 -10 -7 0 -6 4 3 10 19 12 23 12 15 0z m186
-7 c13 -16 12 -17 -3 -4 -17 13 -22 21 -14 21 2 0 10 -8 17 -17z m2089 7 c0
-5 -5 -10 -11 -10 -5 0 -7 5 -4 10 3 6 8 10 11 10 2 0 4 -4 4 -10z m-2043 -6
c-3 -3 -12 -4 -19 -1 -8 3 -5 6 6 6 11 1 17 -2 13 -5z m1180 -10 c-20 -11 -32
-12 -45 -4 -15 10 -15 10 3 6 11 -3 27 -1 35 4 8 5 20 10 25 9 6 0 -2 -7 -18
-15z m583 -5 c121 -19 292 -103 365 -179 16 -16 27 -31 24 -31 -2 -1 -135 -4
-296 -8 l-291 -6 -11 36 c-13 42 -68 84 -124 94 -76 15 -206 -49 -221 -109 -5
-22 -11 -23 -123 -30 -75 -4 -119 -3 -121 3 -2 6 -15 27 -28 47 -14 20 -24 38
-22 40 29 28 347 113 518 138 177 26 194 26 330 5z m195 11 c-3 -5 1 -10 9
-10 9 0 16 -5 16 -10 0 -7 -7 -7 -20 0 -17 9 -20 30 -4 30 3 0 2 -4 -1 -10z
m-1368 -29 c121 -35 215 -85 272 -146 28 -29 51 -59 51 -64 0 -7 -61 -11 -184
-11 -101 0 -204 -3 -229 -6 -44 -6 -47 -5 -57 22 -15 39 -68 93 -107 110 -104
45 -265 -18 -289 -111 -6 -23 -11 -25 -58 -25 -29 0 -122 -3 -207 -7 -181 -7
-180 -10 -36 88 101 70 217 118 372 155 88 21 118 23 250 20 114 -3 167 -9
222 -25z m1433 19 c8 -5 11 -12 8 -16 -4 -3 -14 1 -23 10 -18 17 -9 21 15 6z
m-2123 -6 c-3 -3 -12 -4 -19 -1 -8 3 -5 6 6 6 11 1 17 -2 13 -5z m1223 -4 c8
-5 11 -10 5 -10 -5 0 -17 5 -25 10 -8 5 -10 10 -5 10 6 0 17 -5 25 -10z m-77
-7 c3 -5 -6 -9 -20 -10 -19 -1 -22 1 -12 8 17 11 26 11 32 2z m-98 -13 c3 -6
-1 -7 -9 -4 -18 7 -21 14 -7 14 6 0 13 -4 16 -10z m1155 -14 c0 -2 -10 -2 -22
0 -13 2 -17 2 -10 -2 6 -3 10 -10 7 -15 -4 -5 -12 -3 -19 3 -19 18 3 39 27 27
9 -6 17 -11 17 -13z m-2290 -16 c-8 -5 -19 -10 -25 -10 -5 0 -3 5 5 10 8 5 20
10 25 10 6 0 3 -5 -5 -10z m1147 4 c-3 -3 -12 -4 -19 -1 -8 3 -5 6 6 6 11 1
17 -2 13 -5z m-1282 -84 c-27 -12 -43 -12 -25 0 8 5 22 9 30 9 10 0 8 -3 -5
-9z m0 -20 c-3 -5 -16 -15 -28 -21 -19 -9 -19 -8 3 10 28 23 34 26 25 11z
m1774 -9 c17 -11 7 -41 -13 -41 -19 0 -29 17 -22 35 6 17 15 18 35 6z m-1146
-16 c4 -8 2 -17 -4 -21 -15 -9 -39 3 -39 21 0 19 36 20 43 0z m-1604 -50 c0
-5 -4 -3 -9 5 -5 8 -9 22 -9 30 0 16 17 -16 18 -35z m895 6 c-2 -2 -10 2 -19
9 -12 10 -15 10 -15 0 0 -8 -2 -11 -5 -8 -3 3 -3 13 1 22 6 16 8 16 24 -1 10
-10 16 -20 14 -22z m21 21 c-3 -3 -11 0 -18 7 -9 10 -8 11 6 5 10 -3 15 -9 12
-12z m-818 -24 c-3 -8 -6 -5 -6 6 -1 11 2 17 5 13 3 -3 4 -12 1 -19z m506 15
c-7 -2 -21 -2 -30 0 -10 3 -4 5 12 5 17 0 24 -2 18 -5z m-623 -24 c0 -6 -5 -7
-12 -3 -8 5 -9 2 -5 -9 8 -23 0 -22 -12 1 -8 14 -6 18 10 19 10 1 19 -3 19 -8z
m287 -45 c-3 -3 -12 -4 -19 -1 -8 3 -5 6 6 6 11 1 17 -2 13 -5z m53 -15 c12
-8 10 -9 -9 -4 -16 5 -21 4 -17 -4 5 -7 1 -8 -9 -4 -13 5 -14 7 -3 14 17 11
20 11 38 -2z m-70 -13 c0 -2 -7 -6 -15 -10 -8 -3 -15 -1 -15 4 0 6 7 10 15 10
8 0 15 -2 15 -4z m-366 -27 c3 -3 -5 -5 -19 -5 -13 0 -22 3 -19 7 4 8 30 6 38
-2z m296 -19 c-8 -5 -19 -10 -25 -10 -5 0 -3 5 5 10 8 5 20 10 25 10 6 0 3 -5
-5 -10z m-372 -80 c-7 -10 -14 -17 -17 -15 -4 4 18 35 25 35 2 0 -1 -9 -8 -20z
m-6 -49 c-4 -10 -7 -11 -10 -3 -2 7 -8 12 -14 12 -6 0 -8 -7 -5 -14 4 -10 1
-13 -9 -9 -28 11 -10 32 27 30 11 -1 15 -7 11 -16z m33 -39 c-3 -3 -11 0 -18
7 -9 10 -8 11 6 5 10 -3 15 -9 12 -12z m-25 -6 c0 -2 -9 -6 -20 -9 -11 -3 -18
-1 -14 4 5 9 34 13 34 5z m-85 -54 c-3 -3 -5 1 -5 9 0 12 -2 11 -11 -1 -9 -12
-10 -12 -5 3 3 10 6 24 7 30 0 7 5 1 10 -12 5 -13 7 -26 4 -29z m878 -179 c-7
-2 -19 -2 -25 0 -7 3 -2 5 12 5 14 0 19 -2 13 -5z m-981 -59 c-3 -17 -7 -22
-12 -13 -9 13 -2 39 10 39 4 0 5 -12 2 -26z m763 16 c-11 -5 -27 -9 -35 -9 -9
0 -8 4 5 9 11 5 27 9 35 9 9 0 8 -4 -5 -9z m82 4 c-3 -3 -12 -4 -19 -1 -8 3
-5 6 6 6 11 1 17 -2 13 -5z m-50 -20 c-3 -3 -12 -4 -19 -1 -8 3 -5 6 6 6 11 1
17 -2 13 -5z m-780 -26 c-3 -8 -6 -5 -6 6 -1 11 2 17 5 13 3 -3 4 -12 1 -19z
m270 -44 c-3 -3 -12 -4 -19 -1 -8 3 -5 6 6 6 11 1 17 -2 13 -5z m-57 -28 c0
-3 -4 -8 -10 -11 -5 -3 -10 -1 -10 4 0 6 5 11 10 11 6 0 10 -2 10 -4z m817
-12 c-3 -3 -12 -4 -19 -1 -8 3 -5 6 6 6 11 1 17 -2 13 -5z m-187 -85 c0 -14
-17 -10 -23 5 -4 10 -1 13 9 9 7 -3 14 -9 14 -14z m30 -3 c0 -2 -8 -10 -17
-17 -16 -13 -17 -12 -4 4 13 16 21 21 21 13z m192 -14 c-7 -2 -10 -8 -7 -13 4
-5 -2 -6 -11 -2 -11 4 -13 8 -6 11 7 2 10 8 7 13 -4 5 2 6 11 2 11 -4 13 -8 6
-11z m-1140 -17 c3 -13 1 -22 -3 -19 -9 5 -13 44 -5 44 2 0 6 -11 8 -25z m238
10 c-7 -8 -17 -12 -23 -8 -6 4 -3 9 9 14 27 11 28 11 14 -6z m2773 -2 c-5 -12
-2 -15 10 -10 9 3 19 3 21 -2 3 -4 -8 -7 -24 -7 -25 0 -27 2 -19 18 12 23 21
24 12 1z m-132 -16 c-10 -9 -11 -8 -5 6 3 10 9 15 12 12 3 -3 0 -11 -7 -18z
m-1784 7 c-3 -3 -12 -4 -19 -1 -8 3 -5 6 6 6 11 1 17 -2 13 -5z m-107 -39 c-8
-9 -7 -14 2 -17 6 -2 8 -7 3 -10 -6 -2 -19 4 -29 15 -18 19 -18 20 -2 14 13
-5 17 -3 13 7 -4 10 -1 13 9 9 11 -4 12 -9 4 -18z m-140 1 c0 -3 -4 -8 -10
-11 -5 -3 -10 -1 -10 4 0 6 5 11 10 11 6 0 10 -2 10 -4z m20 -17 c-7 -11 -14
-18 -17 -15 -3 3 0 12 7 21 18 21 23 19 10 -6z m447 4 c0 -10 -4 -10 -16 -1
-9 7 -18 13 -20 15 -2 1 5 1 16 0 11 0 20 -7 20 -14z m-1202 -3 c3 -5 1 -10
-4 -10 -6 0 -11 5 -11 10 0 6 2 10 4 10 3 0 8 -4 11 -10z m1229 -16 c3 -8 2
-12 -4 -9 -6 3 -10 10 -10 16 0 14 7 11 14 -7z m1458 -1 c-6 -3 -9 -10 -6 -15
4 -7 2 -8 -5 -4 -9 6 -9 11 0 22 6 8 15 12 18 8 3 -4 0 -9 -7 -11z m265 -2 c0
-11 -5 -18 -9 -15 -4 3 -5 11 -1 19 7 21 12 19 10 -4z m-3109 -36 c-3 -3 -9 2
-12 12 -6 14 -5 15 5 6 7 -7 10 -15 7 -18z m30 0 c-3 -3 -9 2 -12 12 -6 14 -5
15 5 6 7 -7 10 -15 7 -18z m2739 -48 c0 -15 -34 -20 -42 -6 -4 5 2 6 11 2 13
-5 16 -3 11 10 -4 10 -2 14 7 11 7 -3 13 -11 13 -17z m-1217 -52 c14 -8 21
-14 15 -14 -5 0 -21 6 -35 14 -14 8 -20 14 -15 14 6 0 21 -6 35 -14z m1730 5
c0 -5 -7 -7 -15 -4 -8 4 -15 8 -15 10 0 2 7 4 15 4 8 0 15 -4 15 -10z m54 -12
c-5 -8 -1 -9 12 -4 14 5 16 4 8 -4 -6 -6 -19 -8 -28 -4 -14 5 -15 9 -4 15 18
12 20 11 12 -3z m-2416 -15 c-2 -9 -11 -17 -20 -19 -11 -1 -15 3 -11 13 5 12
7 12 14 1 7 -10 9 -9 9 5 0 9 3 17 6 17 3 0 4 -7 2 -17z m1767 7 c3 -6 -1 -7
-9 -4 -18 7 -21 14 -7 14 6 0 13 -4 16 -10z m705 -10 c0 -5 -5 -10 -11 -10 -5
0 -7 5 -4 10 3 6 8 10 11 10 2 0 4 -4 4 -10z m-3350 -34 c-4 -4 -16 -4 -26 2
-16 9 -14 10 8 9 15 -1 23 -6 18 -11z m1670 0 c0 -2 -7 -7 -16 -10 -8 -3 -12
-2 -9 4 6 10 25 14 25 6z m138 -42 l23 -7 -27 -13 c-31 -17 -34 -17 -34 -4 0
6 8 10 18 11 14 0 14 2 -3 9 -24 10 -10 12 23 4z m-51 -10 c-3 -3 -12 -4 -19
-1 -8 3 -5 6 6 6 11 1 17 -2 13 -5z m776 -1 c-7 -2 -19 -2 -25 0 -7 3 -2 5 12
5 14 0 19 -2 13 -5z m-2525 -14 c-4 -14 41 -20 64 -8 12 6 16 5 14 -6 -1 -8
-6 -18 -11 -22 -4 -4 -5 -2 -1 5 9 15 1 15 -26 1 -16 -9 -19 -8 -13 2 6 9 3
11 -8 6 -16 -6 -41 15 -30 26 9 10 13 8 11 -4z m2319 -35 c-3 -3 -12 -4 -19
-1 -8 3 -5 6 6 6 11 1 17 -2 13 -5z m-160 -20 c-3 -3 -12 -4 -19 -1 -8 3 -5 6
6 6 11 1 17 -2 13 -5z m-1183 -68 c-6 -19 -5 -20 12 -6 18 14 18 14 5 -3 -18
-23 -25 -15 -27 36 -2 35 0 38 7 18 5 -13 6 -33 3 -45z m1123 58 c-3 -3 -12
-4 -19 -1 -8 3 -5 6 6 6 11 1 17 -2 13 -5z m-1957 -24 c0 -5 -2 -10 -4 -10 -3
0 -8 5 -11 10 -3 6 -1 10 4 10 6 0 11 -4 11 -10z m3415 -11 c-18 -5 -34 -4
-40 2 -7 7 -4 8 9 3 12 -5 17 -4 13 3 -4 6 4 8 21 5 l27 -5 -30 -8z m-2090
-79 c44 -21 110 -47 148 -59 37 -13 67 -24 67 -26 0 -12 -24 -55 -31 -55 -4 0
-50 14 -101 31 -81 27 -100 38 -151 87 -32 32 -68 70 -79 86 l-21 28 44 -28
c24 -15 80 -44 124 -64z m548 69 c5 -3 1 -9 -8 -12 -9 -4 -13 -3 -10 3 3 6 1
10 -5 10 -6 0 -8 5 -5 11 4 6 10 7 14 2 3 -4 10 -11 14 -14z m1430 14 c-7 -2
-19 -2 -25 0 -7 3 -2 5 12 5 14 0 19 -2 13 -5z m-3268 -41 c-3 -3 -11 0 -18 7
-9 10 -8 11 6 5 10 -3 15 -9 12 -12z m2652 -38 c-3 -3 -12 -4 -19 -1 -8 3 -5
6 6 6 11 1 17 -2 13 -5z m253 2 c0 -2 -11 -6 -25 -8 -13 -3 -22 -1 -19 3 5 9
44 13 44 5z m-2040 -10 c0 -2 -7 -7 -16 -10 -8 -3 -12 -2 -9 4 6 10 25 14 25
6z m1247 -2 c-3 -3 -12 -4 -19 -1 -8 3 -5 6 6 6 11 1 17 -2 13 -5z m851 -1
c-10 -2 -26 -2 -35 0 -10 3 -2 5 17 5 19 0 27 -2 18 -5z m-201 -19 c-3 -3 -12
-4 -19 -1 -8 3 -5 6 6 6 11 1 17 -2 13 -5z m-1872 -27 c6 -5 3 -7 -7 -3 -10 3
-21 -1 -26 -11 -8 -14 -10 -13 -15 1 -4 10 -3 15 3 11 6 -3 13 1 16 10 4 9 9
12 13 8 3 -4 11 -12 16 -16z m1302 17 c-3 -3 -12 -4 -19 -1 -8 3 -5 6 6 6 11
1 17 -2 13 -5z m510 0 c-3 -3 -12 -4 -19 -1 -8 3 -5 6 6 6 11 1 17 -2 13 -5z
m-2482 -44 c3 -6 -1 -7 -9 -4 -18 7 -21 14 -7 14 6 0 13 -4 16 -10z m70 0 c3
-5 2 -10 -4 -10 -5 0 -13 5 -16 10 -3 6 -2 10 4 10 5 0 13 -4 16 -10z m674
-40 c11 -24 11 -24 -3 -6 -9 11 -16 24 -16 30 0 12 5 7 19 -24z m691 -9 c47
-12 126 -30 175 -40 89 -17 90 -18 88 -45 -1 -16 -4 -31 -7 -33 -7 -7 -396 90
-396 99 0 4 4 18 10 33 8 20 14 24 27 17 10 -5 56 -19 103 -31z m-933 -3 c-3
-8 -6 -5 -6 6 -1 11 2 17 5 13 3 -3 4 -12 1 -19z m124 -19 c-9 -23 -9 -22 -8
8 1 18 6 28 10 24 4 -4 3 -18 -2 -32z m154 31 c3 -5 1 -10 -4 -10 -6 0 -11 5
-11 10 0 6 2 10 4 10 3 0 8 -4 11 -10z m418 -36 c43 -15 59 -35 38 -48 -4 -3
-30 10 -57 29 -54 39 -50 43 19 19z m275 -73 c106 -27 196 -52 199 -55 6 -6
-3 -45 -16 -65 -7 -11 -30 -7 -132 23 -126 38 -259 93 -259 107 0 8 11 39 14
39 0 0 88 -22 194 -49z m1767 7 c-16 -111 -9 -104 -120 -114 -84 -8 -84 -9
-61 65 l13 44 72 17 c39 10 74 20 78 24 17 17 24 2 18 -36z m-2728 10 c-3 -8
-6 -5 -6 6 -1 11 2 17 5 13 3 -3 4 -12 1 -19z m1418 -7 c78 -11 175 -23 217
-27 l76 -7 -15 -46 c-9 -25 -19 -50 -24 -55 -9 -10 -96 6 -322 56 l-138 31 7
31 c9 43 12 47 37 41 12 -3 85 -14 162 -24z m-1612 -25 c-6 -10 -13 -12 -23
-6 -13 8 -12 10 3 10 9 0 17 5 17 12 0 6 3 9 6 5 3 -3 2 -12 -3 -21z m2707
-55 l-12 -49 -106 -6 c-59 -4 -131 -8 -159 -10 -59 -5 -61 -2 -43 65 l10 36
113 7 c61 4 132 11 157 15 25 3 47 3 48 -2 2 -4 -1 -30 -8 -56z m-506 39 l159
0 -7 -47 c-3 -26 -10 -51 -14 -55 -9 -9 -427 -16 -436 -8 -3 3 4 32 16 64 l22
58 50 -6 c28 -3 122 -6 210 -6z m-1687 -32 c-3 -8 -6 -5 -6 6 -1 11 2 17 5 13
3 -3 4 -12 1 -19z m1023 -32 c58 -13 148 -32 200 -41 120 -22 120 -22 104 -61
l-13 -31 -78 12 c-144 24 -360 67 -372 75 -20 12 14 83 36 76 10 -3 65 -16
123 -30z m-1340 13 c0 -4 -8 -7 -17 -7 -10 0 -27 -2 -38 -6 -15 -6 -14 -4 3 7
26 15 52 18 52 6z m440 -51 c0 -4 -7 -8 -17 -8 -9 0 -13 3 -10 7 4 3 -1 12
-11 20 -15 11 -13 12 11 2 15 -7 27 -16 27 -21z m2262 -25 c-2 -27 -5 -49 -6
-50 -4 -4 -191 -31 -194 -28 -5 5 9 70 18 85 4 7 41 19 82 25 114 19 106 22
100 -32z m-218 -20 c-13 -76 -10 -75 -238 -89 l-108 -7 7 34 c17 79 13 76 132
83 59 4 119 8 133 10 80 10 81 9 74 -31z m-2054 17 c0 -5 -2 -10 -4 -10 -3 0
-8 5 -11 10 -3 6 -1 10 4 10 6 0 11 -4 11 -10z m1700 -20 c0 -8 -5 -32 -11
-52 -9 -36 -12 -38 -48 -38 -21 0 -52 7 -67 15 -35 18 -60 19 -103 4 -23 -8
-53 -8 -114 0 -126 18 -125 18 -108 63 l9 23 221 0 c191 0 221 -2 221 -15z
m-1723 -32 c-3 -8 -6 -5 -6 6 -1 11 2 17 5 13 3 -3 4 -12 1 -19z m153 18 c0
-2 -7 -7 -16 -10 -8 -3 -12 -2 -9 4 6 10 25 14 25 6z m-24 -41 c-3 -10 1 -15
11 -15 9 0 14 -3 10 -6 -12 -12 -37 5 -31 21 3 8 8 15 11 15 3 0 3 -7 -1 -15z
m-39 -21 c-3 -3 -12 -4 -19 -1 -8 3 -5 6 6 6 11 1 17 -2 13 -5z m138 -4 c3 -5
1 -10 -4 -10 -6 0 -11 5 -11 10 0 6 2 10 4 10 3 0 8 -4 11 -10z m-593 -14 c6
4 5 -2 -1 -15 -13 -24 -23 -28 -15 -6 4 8 1 15 -6 15 -6 0 -8 5 -4 12 6 9 9 9
12 0 2 -7 8 -9 14 -6z m278 -26 c5 0 11 5 13 10 3 6 4 5 3 -2 -4 -18 -30 -16
-32 2 0 9 1 10 3 3 3 -7 8 -13 13 -13z m1684 -69 c-5 -5 -33 30 -34 43 0 4 9
-2 19 -15 11 -13 17 -26 15 -28z m-2044 35 c0 -2 -8 -10 -17 -17 -16 -13 -17
-12 -4 4 13 16 21 21 21 13z m-2 -45 c-8 -12 -17 -18 -21 -15 -3 3 2 14 11 25
21 24 28 16 10 -10z m1129 13 c-3 -3 -12 -4 -19 -1 -8 3 -5 6 6 6 11 1 17 -2
13 -5z m-80 -10 c-3 -3 -12 -4 -19 -1 -8 3 -5 6 6 6 11 1 17 -2 13 -5z m421
-88 c-7 -8 -15 -12 -17 -11 -5 6 10 25 20 25 5 0 4 -6 -3 -14z m439 -33 c-3
-10 -5 -4 -5 12 0 17 2 24 5 18 2 -7 2 -21 0 -30z m-417 12 c-7 -8 -17 -15
-22 -15 -6 0 -5 7 2 15 7 8 17 15 22 15 6 0 5 -7 -2 -15z m627 -27 c-3 -8 -6
-5 -6 6 -1 11 2 17 5 13 3 -3 4 -12 1 -19z m-2200 -10 c-3 -8 -6 -5 -6 6 -1
11 2 17 5 13 3 -3 4 -12 1 -19z m-10 -40 c-3 -8 -6 -5 -6 6 -1 11 2 17 5 13 3
-3 4 -12 1 -19z m1111 -15 c-10 -2 -26 -2 -35 0 -10 3 -2 5 17 5 19 0 27 -2
18 -5z m145 0 c-7 -2 -19 -2 -25 0 -7 3 -2 5 12 5 14 0 19 -2 13 -5z m367 -12
c0 -5 -7 -12 -16 -15 -14 -5 -15 -4 -4 9 14 17 20 19 20 6z m387 -13 c-3 -8
-6 -5 -6 6 -1 11 2 17 5 13 3 -3 4 -12 1 -19z m-840 6 c-3 -3 -12 -4 -19 -1
-8 3 -5 6 6 6 11 1 17 -2 13 -5z m1238 -14 c-3 -5 -11 -10 -16 -10 -6 0 -7 5
-4 10 3 6 11 10 16 10 6 0 7 -4 4 -10z m-54 -27 c13 -16 12 -17 -3 -4 -17 13
-22 21 -14 21 2 0 10 -8 17 -17z m-357 -9 c3 -8 2 -12 -4 -9 -6 3 -10 10 -10
16 0 14 7 11 14 -7z m-964 -53 c0 -4 -8 -7 -19 -7 -11 0 -17 6 -14 13 5 12 33
7 33 -6z m932 -33 c-8 -8 -9 -4 -5 13 4 13 8 18 11 10 2 -7 -1 -18 -6 -23z
m-1952 -8 c0 -5 -5 -10 -11 -10 -5 0 -7 5 -4 10 3 6 8 10 11 10 2 0 4 -4 4
-10z m1833 -40 c-3 -10 -11 -24 -19 -31 -10 -8 -10 -3 2 20 18 35 24 40 17 11z
m-1750 -25 c-3 -9 -8 -14 -10 -11 -3 3 -2 9 2 15 9 16 15 13 8 -4z m1302 -5
c13 -6 15 -9 5 -9 -8 0 -22 4 -30 9 -18 12 -2 12 25 0z m539 -14 c-3 -9 -10
-13 -15 -10 -5 3 -3 11 4 19 15 16 19 13 11 -9z m-241 7 c-7 -2 -19 -2 -25 0
-7 3 -2 5 12 5 14 0 19 -2 13 -5z m613 -13 c21 -10 32 -19 24 -20 -8 0 -28 9
-45 20 -38 25 -30 25 21 0z m-413 -7 c-4 -10 -2 -14 4 -10 6 4 14 0 17 -8 4
-13 2 -14 -14 -5 -21 11 -25 22 -13 33 11 11 13 8 6 -10z m-895 -27 c-7 -8
-15 -12 -17 -11 -5 6 10 25 20 25 5 0 4 -6 -3 -14z m-897 -11 c5 4 6 -2 2 -11
-4 -11 -8 -13 -11 -6 -2 7 -8 10 -13 7 -5 -4 -6 2 -2 11 4 11 8 13 11 6 2 -7
8 -10 13 -7z m898 -26 c-12 -8 -12 -11 1 -19 9 -6 10 -10 3 -10 -20 0 -25 18
-11 40 7 11 15 15 17 9 2 -6 -3 -15 -10 -20z m2312 -22 c-10 -9 -11 -8 -5 6 3
10 9 15 12 12 3 -3 0 -11 -7 -18z m-1658 -4 c-7 -2 -19 -2 -25 0 -7 3 -2 5 12
5 14 0 19 -2 13 -5z m188 -16 c-10 -9 -11 -8 -5 6 3 10 9 15 12 12 3 -3 0 -11
-7 -18z m-228 -4 c-7 -2 -19 -2 -25 0 -7 3 -2 5 12 5 14 0 19 -2 13 -5z m1707
-8 c19 -22 8 -25 -12 -3 -10 10 -14 18 -9 18 5 0 14 -7 21 -15z m-3130 -17 c0
-5 -4 -6 -10 -3 -20 13 -9 -13 13 -29 l22 -17 -22 11 c-24 11 -46 44 -37 53 8
8 34 -3 34 -15z m723 7 c-3 -9 -8 -14 -10 -11 -3 3 -2 9 2 15 9 16 15 13 8 -4z
m921 -22 c-4 -22 -3 -25 5 -13 13 18 15 1 2 -19 -13 -20 -24 4 -17 35 9 33 18
31 10 -3z m-922 -39 c-9 -16 -10 -14 -9 8 1 15 6 23 11 18 4 -4 4 -16 -2 -26z
m2185 -20 c-3 -3 -12 -4 -19 -1 -8 3 -5 6 6 6 11 1 17 -2 13 -5z m140 0 c-3
-3 -12 -4 -19 -1 -8 3 -5 6 6 6 11 1 17 -2 13 -5z m-2320 -46 c-3 -8 -6 -5 -6
6 -1 11 2 17 5 13 3 -3 4 -12 1 -19z m-622 2 c3 -5 2 -10 -4 -10 -5 0 -13 5
-16 10 -3 6 -2 10 4 10 5 0 13 -4 16 -10z m44 -23 c8 -10 7 -14 -2 -14 -8 0
-14 6 -14 14 0 7 1 13 2 13 2 0 8 -6 14 -13z m55 -6 c4 -5 -3 -7 -14 -4 -23 6
-26 13 -6 13 8 0 17 -4 20 -9z m351 -1 c-3 -6 4 -10 16 -10 28 0 22 -5 -16
-14 -22 -5 -26 -4 -15 4 13 9 13 10 0 10 -13 0 -13 1 0 10 19 12 23 12 15 0z
m103 -12 c-3 -7 -15 -14 -29 -15 l-24 -1 24 5 c19 4 21 7 10 14 -11 7 -10 9 4
9 11 0 17 -6 15 -12z m1926 -2 c-3 -8 -13 -17 -22 -21 -13 -5 -13 -2 3 15 21
24 26 25 19 6z m-2358 -27 c3 -6 -5 -3 -20 6 -14 10 -26 19 -26 22 0 7 39 -17
46 -28z m471 25 c-3 -3 -12 -4 -19 -1 -8 3 -5 6 6 6 11 1 17 -2 13 -5z m893
-24 c0 -5 -2 -10 -4 -10 -3 0 -8 5 -11 10 -3 6 -1 10 4 10 6 0 11 -4 11 -10z
m999 -3 c-2 -1 -13 -9 -24 -17 -19 -14 -19 -14 -6 3 7 9 18 17 24 17 6 0 8 -1
6 -3z m-922 -148 c0 -21 -3 -26 -9 -16 -4 9 -5 22 -2 31 9 23 11 20 11 -15z
m43 -59 c0 -5 -2 -10 -4 -10 -3 0 -8 5 -11 10 -3 6 -1 10 4 10 6 0 11 -4 11
-10z m875 -16 c-8 -9 -15 -20 -15 -26 0 -6 -2 -9 -5 -6 -9 8 17 58 27 52 4 -3
1 -12 -7 -20z m-785 -48 c0 -2 -7 -7 -16 -10 -8 -3 -12 -2 -9 4 6 10 25 14 25
6z m720 -20 c0 -8 -4 -17 -8 -20 -4 -2 -8 4 -8 15 0 10 4 19 8 19 4 0 8 -6 8
-14z m-694 -7 c3 -6 1 -16 -6 -22 -10 -9 -11 -9 -5 2 4 8 2 17 -6 22 -9 6 -10
9 -2 9 6 0 15 -5 19 -11z m658 -25 c3 -8 2 -12 -4 -9 -6 3 -10 10 -10 16 0 14
7 11 14 -7z m5 -117 c0 -9 -2 -9 -5 0 -3 7 -13 9 -22 6 -14 -4 -14 -3 -2 5 16
12 30 7 29 -11z m28 1 c-3 -8 -6 -5 -6 6 -1 11 2 17 5 13 3 -3 4 -12 1 -19z
m-567 8 c0 -2 -7 -7 -16 -10 -8 -3 -12 -2 -9 4 6 10 25 14 25 6z m35 -16 c3
-6 -1 -7 -9 -4 -18 7 -21 14 -7 14 6 0 13 -4 16 -10z m-20 -18 c-3 -3 -11 0
-18 7 -9 10 -8 11 6 5 10 -3 15 -9 12 -12z m468 11 c-7 -2 -19 -2 -25 0 -7 3
-2 5 12 5 14 0 19 -2 13 -5z m-206 -69 c-3 -3 -12 -4 -19 -1 -8 3 -5 6 6 6 11
1 17 -2 13 -5z"/>
</g>
</svg>
